<svg xmlns="http://www.w3.org/2000/svg" width="1600" height="1000" viewBox="0 0 1600 1000"><defs><linearGradient id="bg" x1="0" x2="1" y1="0" y2="1"><stop stop-color="#061a16"/><stop offset="1" stop-color="#123c32"/></linearGradient><linearGradient id="a" x1="0" x2="1"><stop stop-color="#08f7b2"/><stop offset="1" stop-color="#8ff5df"/></linearGradient><style>.s{font-family:Inter,Arial,sans-serif}.mut{fill:#b9d0ca}.w{fill:#f4fffb}.g{fill:#19f5b5}.y{fill:#ffd166}.box{fill:#172b27;stroke:#31524a;stroke-width:2}.small{font-size:26px}.body{font-size:32px}.cardTitle{font-size:30px;font-weight:800}.cardNum{font-size:44px;font-weight:900}.title{font-size:56px;font-weight:900}.sub{font-size:31px}</style></defs><rect width="1600" height="1000" fill="url(#bg)"/><path d="M1050 0 C1360 120 1390 410 1600 520 L1600 0Z" fill="#0e4b3d" opacity=".55"/><path d="M0 735 C300 555 520 870 850 650 S1290 510 1600 650" fill="none" stroke="#1ff0b9" stroke-width="4" opacity=".35"/><path d="M0 825 C320 670 560 960 890 750 S1300 650 1600 760" fill="none" stroke="#8ff5df" stroke-width="2" opacity=".28"/><rect x="70" y="48" width="1460" height="12" rx="6" fill="url(#a)"/><text x="88" y="116" class="s small mut">2026-05-26 · Глобальный обзор</text><text x="88" y="210" class="s title w">AI semis: high-level confirmation, not breakdown</text><text x="88" y="264" class="s sub mut">Taiwan откатился от highs; Korea strong; HL perps still price AI premiums.</text><g transform="translate(88,340)"><rect class="box" width="390" height="150" rx="14"/><text x="28" y="46" class="s small mut">HL NVDA</text><text x="28" y="100" class="s cardNum g">~$217.15</text><text x="28" y="132" class="s small w">+0.8% vs May 22 close</text></g><g transform="translate(518,340)"><rect class="box" width="390" height="150" rx="14"/><text x="28" y="46" class="s small mut">HL TSM</text><text x="28" y="100" class="s cardNum y">~$410.53</text><text x="28" y="132" class="s small w">Needs U.S. cash confirm</text></g><g transform="translate(948,340)"><rect class="box" width="390" height="150" rx="14"/><text x="28" y="46" class="s small mut">HL MU</text><text x="28" y="100" class="s cardNum g">~$779.59</text><text x="28" y="132" class="s small w">$34.31M 24h volume</text></g><g transform="translate(88,560)"><rect class="box" width="680" height="245" rx="14"/><text x="28" y="54" class="s cardTitle w">3 key questions</text><text x="28" y="112" class="s body w">1. Подтвердит ли TSM ADR $410?</text><text x="28" y="160" class="s body w">2. Вернется ли NVDA выше $220?</text><text x="28" y="208" class="s body w">3. Удержит ли MU около $780?</text></g><g transform="translate(820,560)"><rect class="box" width="620" height="245" rx="14"/><text x="28" y="54" class="s cardTitle w">Framework</text><text x="28" y="112" class="s body w">Hold core AI; avoid spikes.</text><text x="28" y="160" class="s body w">Control leverage until U.S. confirm.</text><text x="28" y="208" class="s body w">Watch BTC, funding and OI.</text></g><text x="88" y="895" class="s body y">Bottom line: AI hardware intact, but confirmation matters tonight.</text><text x="88" y="940" class="s small mut">For information only, not financial advice. Based on supplied brief and public sources.</text></svg>