<svg xmlns="http://www.w3.org/2000/svg" width="1200" height="675" viewBox="0 0 1200 675"><defs><linearGradient id="bg" x1="0" y1="0" x2="1" y2="1"><stop offset="0" stop-color="#08231d"/><stop offset="0.55" stop-color="#0b4738"/><stop offset="1" stop-color="#06120f"/></linearGradient></defs><rect width="1200" height="675" fill="url(#bg)"/><path d="M780 0 C890 135 860 260 1010 358 C1090 410 1165 520 1200 675 L760 675 Z" fill="#0f6b54" opacity="0.42"/><path d="M0 520 C175 440 275 488 420 410 C555 340 715 388 842 300 C990 196 1070 230 1200 165" fill="none" stroke="#34f5bf" stroke-width="5" opacity="0.46"/><rect x="70" y="48" width="315" height="42" rx="21" fill="#0d4a3c" stroke="#33f5c3" opacity="0.95"/><text x="92" y="76" font-size="18" font-weight="700" fill="#dffff7">2026-05-28 · Global Market Brief</text><text x="70" y="150" font-size="43" font-weight="800" fill="#effffb">AI半導體轉向確定性</text><text x="70" y="210" font-size="22" font-weight="500" fill="#b8d8cf">TSM與MU領漲、NVDA降溫；BTC/ETH偏弱，說明這不是全面亢奮。</text><rect x="70" y="312" width="220" height="105" rx="10" fill="#0b251f" stroke="#315f52"/><text x="90" y="346" font-size="18" font-weight="700" fill="#b8d8cf">TSM ADR</text><text x="90" y="384" font-size="32" font-weight="800" fill="#35ffc4">$422.73</text><text x="196" y="384" font-size="22" font-weight="800" fill="#ffce73">+2.52%</text><rect x="320" y="312" width="220" height="105" rx="10" fill="#0b251f" stroke="#315f52"/><text x="340" y="346" font-size="18" font-weight="700" fill="#b8d8cf">MU</text><text x="340" y="384" font-size="32" font-weight="800" fill="#35ffc4">$928.41</text><text x="446" y="384" font-size="22" font-weight="800" fill="#ffce73">+3.62%</text><rect x="570" y="312" width="220" height="105" rx="10" fill="#0b251f" stroke="#315f52"/><text x="590" y="346" font-size="18" font-weight="700" fill="#b8d8cf">BTC</text><text x="590" y="384" font-size="32" font-weight="800" fill="#35ffc4">$74,313</text><text x="696" y="384" font-size="22" font-weight="800" fill="#ff8f8f">-1.9%</text><rect x="70" y="452" width="470" height="134" rx="12" fill="#102c25" stroke="#376b5d"/><text x="98" y="492" font-size="24" font-weight="800" fill="#effffb">3個關鍵問題</text><text x="98" y="530" font-size="20" fill="#d8f8ef">1. TSM能否守410-405？</text><text x="98" y="560" font-size="20" fill="#d8f8ef">2. MU能否守住900？</text><text x="98" y="590" font-size="20" fill="#d8f8ef">3. NVDA弱勢會否擴散？</text><rect x="590" y="452" width="430" height="134" rx="12" fill="#102c25" stroke="#376b5d"/><text x="618" y="492" font-size="24" font-weight="800" fill="#effffb">操作框架</text><text x="618" y="530" font-size="20" fill="#d8f8ef">持有核心TSM。</text><text x="618" y="560" font-size="20" fill="#d8f8ef">管理MU浮盈。</text><text x="618" y="590" font-size="20" fill="#d8f8ef">不追連續急漲。</text><text x="70" y="628" font-size="20" font-weight="800" fill="#ffce73">結論：AI仍在，但市場正在買瓶頸與確定性。</text></svg>