<svg xmlns="http://www.w3.org/2000/svg" width="1200" height="675" viewBox="0 0 1200 675"><defs><linearGradient id="bg" x1="0" y1="0" x2="1" y2="1"><stop offset="0" stop-color="#08231d"/><stop offset="0.55" stop-color="#0b4738"/><stop offset="1" stop-color="#06120f"/></linearGradient></defs><rect width="1200" height="675" fill="url(#bg)"/><path d="M780 0 C890 135 860 260 1010 358 C1090 410 1165 520 1200 675 L760 675 Z" fill="#0f6b54" opacity="0.42"/><path d="M0 520 C175 440 275 488 420 410 C555 340 715 388 842 300 C990 196 1070 230 1200 165" fill="none" stroke="#34f5bf" stroke-width="5" opacity="0.46"/><rect x="70" y="48" width="345" height="42" rx="21" fill="#0d4a3c" stroke="#33f5c3" opacity="0.95"/><text x="92" y="76" font-size="18" font-weight="700" fill="#dffff7">2026-06-29 · Global Market Brief</text><text x="70" y="150" font-size="43" font-weight="800" fill="#effffb">AI memory: still hot,</text><text x="70" y="202" font-size="43" font-weight="800" fill="#effffb">second confirmation</text><text x="70" y="262" font-size="22" font-weight="500" fill="#b8d8cf">MU remains active, TSM repairs in Taiwan, and high PCE caps valuation.</text><rect x="70" y="312" width="220" height="105" rx="10" fill="#0b251f" stroke="#315f52"/><text x="90" y="346" font-size="18" font-weight="700" fill="#b8d8cf">MU</text><text x="90" y="382" font-size="30" font-weight="800" fill="#35ffc4">$1145.6</text><text x="90" y="407" font-size="17" font-weight="800" fill="#ffce73">XYZ +2.0%</text><rect x="320" y="312" width="220" height="105" rx="10" fill="#0b251f" stroke="#315f52"/><text x="340" y="346" font-size="18" font-weight="700" fill="#b8d8cf">TSM TW</text><text x="340" y="382" font-size="30" font-weight="800" fill="#35ffc4">NT$2390</text><text x="340" y="407" font-size="17" font-weight="800" fill="#ffce73">below 2400</text><rect x="570" y="312" width="220" height="105" rx="10" fill="#0b251f" stroke="#315f52"/><text x="590" y="346" font-size="18" font-weight="700" fill="#b8d8cf">HYPE</text><text x="590" y="382" font-size="30" font-weight="800" fill="#35ffc4">$61.86</text><text x="590" y="407" font-size="17" font-weight="800" fill="#ffce73">flat</text><rect x="70" y="452" width="470" height="134" rx="12" fill="#102c25" stroke="#376b5d"/><text x="98" y="492" font-size="24" font-weight="800" fill="#effffb">3 key questions</text><text x="98" y="530" font-size="20" fill="#d8f8ef">1. Can MU hold 1140-1150?</text><text x="98" y="560" font-size="20" fill="#d8f8ef">2. Can TSM reclaim NT$2400?</text><text x="98" y="590" font-size="20" fill="#d8f8ef">3. Does memory volume return?</text><rect x="590" y="452" width="430" height="134" rx="12" fill="#102c25" stroke="#376b5d"/><text x="618" y="492" font-size="24" font-weight="800" fill="#effffb">Framework</text><text x="618" y="530" font-size="20" fill="#d8f8ef">Stay constructive.</text><text x="618" y="560" font-size="20" fill="#d8f8ef">Do not chase memory.</text><text x="618" y="590" font-size="20" fill="#d8f8ef">Wait for confirmation.</text><text x="70" y="628" font-size="20" font-weight="800" fill="#ffce73">Bottom line: AI memory is alive, but post-earnings euphoria is cooling.</text></svg>