<svg xmlns="http://www.w3.org/2000/svg" width="1200" height="675" viewBox="0 0 1200 675"><defs><linearGradient id="bg" x1="0" y1="0" x2="1" y2="1"><stop offset="0" stop-color="#08231d"/><stop offset="0.55" stop-color="#0b4738"/><stop offset="1" stop-color="#06120f"/></linearGradient></defs><rect width="1200" height="675" fill="url(#bg)"/><path d="M780 0 C890 135 860 260 1010 358 C1090 410 1165 520 1200 675 L760 675 Z" fill="#0f6b54" opacity="0.42"/><path d="M0 520 C175 440 275 488 420 410 C555 340 715 388 842 300 C990 196 1070 230 1200 165" fill="none" stroke="#34f5bf" stroke-width="5" opacity="0.46"/><rect x="70" y="48" width="315" height="42" rx="21" fill="#0d4a3c" stroke="#33f5c3" opacity="0.95"/><text x="92" y="76" font-size="18" font-weight="700" fill="#dffff7">2026-05-29 · Global Market Brief</text><text x="70" y="150" font-size="43" font-weight="800" fill="#effffb">AI semis: strong trend, faster</text><text x="70" y="202" font-size="43" font-weight="800" fill="#effffb">rotation</text><text x="70" y="262" font-size="22" font-weight="500" fill="#b8d8cf">TSM and NVDA rise, MU churns at highs, and HYPE stays firm while BTC is</text><text x="70" y="292" font-size="22" font-weight="500" fill="#b8d8cf">flat.</text><rect x="70" y="312" width="220" height="105" rx="10" fill="#0b251f" stroke="#315f52"/><text x="90" y="346" font-size="18" font-weight="700" fill="#b8d8cf">TSM ADR</text><text x="90" y="384" font-size="32" font-weight="800" fill="#35ffc4">$424.86</text><text x="196" y="384" font-size="22" font-weight="800" fill="#ffce73">+0.50%</text><rect x="320" y="312" width="220" height="105" rx="10" fill="#0b251f" stroke="#315f52"/><text x="340" y="346" font-size="18" font-weight="700" fill="#b8d8cf">MU</text><text x="340" y="384" font-size="32" font-weight="800" fill="#35ffc4">$923.52</text><text x="446" y="384" font-size="22" font-weight="800" fill="#ff8f8f">-0.53%</text><rect x="570" y="312" width="220" height="105" rx="10" fill="#0b251f" stroke="#315f52"/><text x="590" y="346" font-size="18" font-weight="700" fill="#b8d8cf">HYPE</text><text x="590" y="384" font-size="32" font-weight="800" fill="#35ffc4">$61.50</text><text x="696" y="384" font-size="22" font-weight="800" fill="#ffce73">+7.2%</text><rect x="70" y="452" width="470" height="134" rx="12" fill="#102c25" stroke="#376b5d"/><text x="98" y="492" font-size="24" font-weight="800" fill="#effffb">3 key questions</text><text x="98" y="530" font-size="20" fill="#d8f8ef">1. Can TSM hold $420?</text><text x="98" y="560" font-size="20" fill="#d8f8ef">2. Can MU defend $900?</text><text x="98" y="590" font-size="20" fill="#d8f8ef">3. Can HYPE stay strong?</text><rect x="590" y="452" width="430" height="134" rx="12" fill="#102c25" stroke="#376b5d"/><text x="618" y="492" font-size="24" font-weight="800" fill="#effffb">Framework</text><text x="618" y="530" font-size="20" fill="#d8f8ef">Hold core TSM.</text><text x="618" y="560" font-size="20" fill="#d8f8ef">Protect MU profits.</text><text x="618" y="590" font-size="20" fill="#d8f8ef">Watch AI breadth.</text><text x="70" y="628" font-size="20" font-weight="800" fill="#ffce73">Bottom line: AI is not fading, but high-beta winners now need rules.</text></svg>