<svg xmlns="http://www.w3.org/2000/svg" width="1600" height="1000" viewBox="0 0 1600 1000" role="img" aria-labelledby="title desc"><title id="title">全球市場機構簡報 2026-05-23</title><desc id="desc">英偉達指引強，但利率、油價與倉位讓AI鏈更偏結構行情。</desc><defs><linearGradient id="bg" x1="0" y1="0" x2="1" y2="1"><stop offset="0" stop-color="#06120f"/><stop offset="0.55" stop-color="#0b1b17"/><stop offset="1" stop-color="#10251f"/></linearGradient><linearGradient id="accent" x1="0" y1="0" x2="1" y2="0"><stop offset="0" stop-color="#30f2a6"/><stop offset="1" stop-color="#38d9d0"/></linearGradient><filter id="softShadow" x="-20%" y="-20%" width="140%" height="140%"><feDropShadow dx="0" dy="18" stdDeviation="22" flood-color="#000" flood-opacity="0.28"/></filter><style>.font{font-family:-apple-system,BlinkMacSystemFont,"PingFang TC","Microsoft JhengHei","Noto Sans CJK TC",Arial,sans-serif}.muted{fill:#a9bdb5}.text{fill:#f5fff9}.green{fill:#30f2a6}.amber{fill:#ffd36a}.card{fill:rgba(255,255,255,.055);stroke:rgba(255,255,255,.14);stroke-width:1.5}.small{font-size:27px}.body{font-size:32px}.label{font-size:30px;font-weight:700}.num{font-size:47px;font-weight:850}.title{font-size:62px;font-weight:900}.subtitle{font-size:33px;font-weight:650}</style></defs><rect width="1600" height="1000" fill="url(#bg)"/><circle cx="1340" cy="120" r="260" fill="#30f2a6" opacity=".08"/><circle cx="1260" cy="850" r="340" fill="#38d9d0" opacity=".06"/><path d="M90 780 C280 670 410 780 560 650 S860 520 1040 610 S1300 710 1510 560" fill="none" stroke="#30f2a6" stroke-width="6" opacity=".28"/><path d="M90 820 C300 730 420 830 590 705 S880 590 1040 680 S1320 770 1510 635" fill="none" stroke="#38d9d0" stroke-width="4" opacity=".18"/><g class="font"><rect x="72" y="60" width="1456" height="880" rx="28" class="card" filter="url(#softShadow)"/><rect x="72" y="60" width="1456" height="10" rx="5" fill="url(#accent)"/><text x="112" y="128" class="muted small">2026-05-23 · 全球市場機構簡報</text><text x="112" y="215" class="text title">AI需求確認 + 估值紀律</text><text x="112" y="270" class="muted subtitle">英偉達指引強，但利率、油價與倉位讓AI鏈更偏結構行情。</text><g transform="translate(112 330)"><rect width="420" height="170" rx="18" class="card"/><text x="28" y="54" class="muted label">NVDA FY2027 Q1</text><text x="28" y="118" class="green num">營收 $81.6B</text><text x="28" y="150" class="muted small">同比 +85%</text></g><g transform="translate(590 330)"><rect width="420" height="170" rx="18" class="card"/><text x="28" y="54" class="muted label">Q2 指引</text><text x="28" y="118" class="green num">$91B ±2%</text><text x="28" y="150" class="muted small">AI工廠需求仍強</text></g><g transform="translate(1068 330)"><rect width="420" height="170" rx="18" class="card"/><text x="28" y="54" class="muted label">TSM觀察位</text><text x="28" y="118" class="amber num">$400 / $390</text><text x="28" y="150" class="muted small">不追高，守風險</text></g><g transform="translate(112 550)"><rect width="658" height="270" rx="18" class="card"/><text x="28" y="58" class="text label">今天最重要的 3 個問題</text><text x="28" y="116" class="muted body">1. NVDA 213-215美元能否守住？</text><text x="28" y="170" class="muted body">2. TSM 400美元附近是否穩定？</text><text x="28" y="224" class="muted body">3. 10Y、油價、BTC是否同時惡化？</text></g><g transform="translate(830 550)"><rect width="658" height="270" rx="18" class="card"/><text x="28" y="58" class="text label">操作框架</text><text x="28" y="116" class="muted body">核心AI資產可持有。</text><text x="28" y="170" class="muted body">避免高位加槓桿。</text><text x="28" y="224" class="muted body">Networking +199%利好光模組與電力。</text></g><text x="112" y="884" class="amber small">一句話結論：AI基本面更強，但市場正在要求估值、利率和倉位紀律。</text><text x="112" y="920" class="muted small">資訊僅供參考，不構成投資建議。數據來自用戶提供的當日簡報與所列公開來源。</text></g></svg>